<?xml version="1.0" standalone="no"?>
<!DOCTYPE svg PUBLIC "-//W3C//DTD SVG 20010904//EN"
 "http://www.w3.org/TR/2001/REC-SVG-20010904/DTD/svg10.dtd">
<svg version="1.0" xmlns="http://www.w3.org/2000/svg"
 width="300.000000pt" height="79.000000pt" viewBox="0 0 300.000000 79.000000"
 preserveAspectRatio="xMidYMid meet">
<metadata>
Created by potrace 1.10, written by Peter Selinger 2001-2011
</metadata>
<g transform="translate(0.000000,79.000000) scale(0.100000,-0.100000)"
fill="#000000" stroke="none">
<path d="M258 699 c-53 -27 -58 -32 -58 -63 0 -31 -4 -35 -70 -67 l-70 -33 0
-62 0 -62 68 -40 67 -40 3 134 c3 137 5 144 43 124 17 -10 19 -23 19 -155 l0
-145 35 17 35 17 0 187 c0 103 3 194 6 203 9 23 -12 19 -78 -15z m42 -75 c0
-38 -5 -41 -32 -17 -23 20 -23 39 -1 52 25 13 33 5 33 -35z m-139 -111 c8
-105 2 -122 -37 -96 -30 19 -34 86 -6 102 26 16 42 13 43 -6z"/>
<path d="M798 594 c-47 -25 -53 -47 -58 -227 l-5 -167 33 0 32 0 0 154 c0 135
2 157 18 177 40 49 122 17 122 -48 0 -48 -29 -73 -85 -73 -44 0 -45 -1 -45
-31 l0 -31 60 4 c73 5 110 29 128 84 18 54 7 101 -33 141 -29 29 -39 33 -86
33 -30 -1 -66 -7 -81 -16z"/>
<path d="M2155 405 l0 -205 32 0 31 0 -5 60 -6 60 35 0 c44 0 65 -23 74 -78 6
-38 9 -42 36 -42 l30 0 -7 53 c-9 61 -17 81 -46 101 l-22 15 32 50 c17 28 31
53 31 56 0 3 -13 5 -29 5 -26 0 -34 -7 -58 -52 -19 -37 -34 -53 -48 -53 -19 0
-20 7 -20 118 l0 117 -30 0 -30 0 0 -205z"/>
<path d="M384 564 c3 -9 6 -56 6 -106 l0 -90 40 32 c38 30 40 35 40 85 0 52
-1 53 -40 74 -49 25 -54 26 -46 5z"/>
<path d="M1322 471 c-67 -43 -90 -125 -55 -198 44 -93 189 -99 243 -10 39 63
18 162 -43 201 -41 27 -107 30 -145 7z m125 -63 c17 -16 23 -33 23 -64 0 -51
-23 -82 -67 -90 -44 -9 -93 38 -93 89 0 77 83 116 137 65z"/>
<path d="M1580 383 c0 -126 12 -157 68 -172 20 -6 52 -11 70 -11 19 0 32 -5
32 -12 -1 -35 -42 -58 -104 -58 -45 0 -46 -1 -46 -31 l0 -32 58 6 c32 2 73 12
91 22 51 26 61 63 61 235 l0 150 -31 0 -30 0 3 -110 3 -110 -45 0 c-26 0 -51
5 -58 12 -8 8 -12 47 -12 109 l0 97 -30 4 -30 5 0 -104z"/>
<path d="M1944 481 c-89 -38 -109 -197 -32 -254 33 -25 117 -34 158 -17 35 14
36 17 14 41 -13 14 -21 16 -42 8 -33 -13 -75 -3 -98 23 -24 26 -23 102 2 129
31 34 104 23 104 -16 0 -15 -38 -35 -66 -35 -30 0 -34 -3 -34 -25 0 -23 4 -25
40 -25 99 0 153 81 98 145 -18 19 -35 27 -73 30 -27 3 -59 1 -71 -4z"/>
<path d="M2440 458 c0 -27 1 -28 60 -28 83 0 100 -18 100 -105 l0 -66 -57 3
c-48 2 -58 6 -61 22 -6 29 25 47 70 40 36 -6 38 -5 38 19 0 22 -6 27 -35 33
-105 19 -174 -69 -111 -142 22 -26 29 -28 120 -32 l96 -4 0 88 c0 106 -13 159
-43 176 -12 7 -57 15 -100 18 l-77 5 0 -27z"/>
<path d="M2714 481 c-2 -2 -4 -67 -4 -143 l0 -138 33 0 32 0 -3 115 -3 115 38
0 c21 0 49 -7 61 -16 20 -14 22 -23 22 -115 l0 -99 31 0 31 0 -4 115 c-4 151
-10 158 -139 165 -50 3 -93 3 -95 1z"/>
<path d="M1079 451 c-28 -28 -29 -33 -29 -124 0 -53 -3 -102 -6 -111 -5 -13 1
-16 30 -16 l36 0 0 103 c0 67 4 107 12 115 7 7 34 12 60 12 45 0 48 2 48 25 0
24 -3 25 -61 25 -54 0 -64 -3 -90 -29z"/>
<path d="M404 354 c-88 -69 -167 -104 -236 -104 -51 0 -60 3 -74 26 -10 14
-20 42 -24 62 l-6 37 -14 -25 c-18 -33 -16 -109 4 -147 23 -46 84 -92 145
-110 74 -21 215 -13 294 17 54 20 199 110 212 130 3 5 -20 22 -52 39 -32 16
-86 50 -119 75 -34 25 -64 46 -66 46 -3 0 -31 -21 -64 -46z m113 -24 c25 -21
68 -49 95 -62 l50 -23 -31 -26 c-85 -70 -223 -114 -341 -107 -96 6 -160 35
-201 91 -33 45 -32 57 3 33 14 -10 43 -16 79 -16 46 0 72 7 136 39 43 22 96
56 118 75 22 19 42 35 43 36 2 0 24 -18 49 -40z"/>
</g>
</svg>
