<?xml version="1.0" encoding="UTF-8"?>
<svg xmlns="http://www.w3.org/2000/svg" xmlns:xlink="http://www.w3.org/1999/xlink" width="1600" height="400" viewBox="0 500 1600 5" version="1.1">
<g id="surface1">
<path style=" stroke:none;fill-rule:nonzero;fill:rgb(1.568627%,47.058824%,34.117647%);fill-opacity:1;" d="M 137.140625 373.1875 L 103.171875 389.59375 L 103.875 406.71875 L 104.59375 423.59375 L 130.71875 434.53125 L 130.953125 449.75 C 131.203125 458.078125 131.4375 491.125 131.671875 523.46875 C 131.90625 574.59375 132.390625 582.4375 135.46875 582.4375 C 137.609375 582.4375 146.640625 578.640625 155.671875 574.109375 L 172.296875 565.796875 L 172.296875 461.171875 C 172.296875 403.625 172.0625 356.546875 171.828125 356.546875 C 171.34375 356.546875 155.90625 364.15625 137.140625 373.1875 Z M 137.140625 373.1875 "/>
<path style=" stroke:none;fill-rule:nonzero;fill:rgb(1.568627%,47.058824%,34.117647%);fill-opacity:1;" d="M 420.546875 422.171875 C 406.78125 426.921875 395.375 437.390625 387.296875 451.890625 L 380.171875 464.734375 L 379.453125 547.25 L 378.734375 630 L 409.625 630 L 410.34375 553.1875 C 411.046875 483.765625 411.53125 475.671875 415.5625 467.59375 C 422.921875 452.609375 438.375 445.71875 457.375 449.28125 C 476.375 452.84375 487.546875 471.875 483.515625 493.75 C 479.703125 515.390625 467.828125 523 437.65625 523 L 417.46875 523 L 417.703125 537.734375 L 418.171875 552.71875 L 435.75 553.421875 C 458.5625 554.375 475.1875 550.8125 490.875 541.296875 C 501.328125 535.125 505.125 531.078125 510.59375 519.65625 C 516.53125 507.78125 517.71875 502.78125 517.71875 486.375 C 517.953125 469.96875 517 465.21875 511.296875 453.5625 C 503.46875 437.859375 491.828125 427.171875 476.625 421.9375 C 463.3125 417.421875 433.375 417.65625 420.546875 422.171875 Z M 420.546875 422.171875 "/>
<path style=" stroke:none;fill-rule:nonzero;fill:rgb(1.568627%,47.058824%,34.117647%);fill-opacity:1;" d="M 1108.3125 525.375 L 1108.3125 630 L 1139.1875 630 L 1139.1875 568.171875 L 1152.96875 568.171875 C 1162.234375 568.171875 1168.890625 569.59375 1174.109375 572.921875 C 1186.46875 580.296875 1189.796875 587.90625 1190.984375 610.015625 L 1192.171875 630 L 1223.046875 630 L 1221.859375 606.21875 C 1220.4375 576.25 1212.59375 558.890625 1197.390625 550.578125 C 1192.171875 547.953125 1187.421875 545.34375 1186.9375 545.109375 C 1186.46875 544.625 1187.65625 542.484375 1189.5625 540.34375 C 1191.453125 537.96875 1197.15625 528.46875 1202.140625 519.421875 C 1207.140625 510.15625 1213.3125 499.21875 1215.6875 494.9375 C 1218.0625 490.65625 1219.96875 486.609375 1219.96875 485.90625 C 1219.96875 485.1875 1212.84375 484.953125 1204.046875 485.421875 C 1188.375 486.140625 1188.125 486.140625 1183.375 495.640625 C 1180.53125 500.875 1174.359375 513 1169.125 522.28125 L 1160.09375 539.640625 L 1139.1875 539.640625 L 1139.1875 420.75 L 1108.3125 420.75 Z M 1108.3125 525.375 "/>
<path style=" stroke:none;fill-rule:nonzero;fill:rgb(1.568627%,47.058824%,34.117647%);fill-opacity:1;" d="M 85.34375 432.640625 C 77.75 436.671875 62.78125 443.578125 52.328125 448.09375 L 33.3125 455.9375 L 32.609375 488.984375 L 32.125 521.796875 L 59.921875 538.21875 C 75.375 547.25 90.578125 556.765625 93.65625 559.140625 C 96.75 561.515625 100.3125 563.421875 101.265625 563.421875 C 102.453125 563.421875 103.40625 532.265625 103.40625 494.453125 C 103.40625 456.40625 102.453125 425.5 101.265625 425.5 C 100.3125 425.5 92.953125 428.828125 85.34375 432.640625 Z M 85.34375 432.640625 "/>
<path style=" stroke:none;fill-rule:nonzero;fill:rgb(1.568627%,47.058824%,34.117647%);fill-opacity:1;" d="M 198.421875 491.609375 C 198.421875 535.828125 199.140625 546.765625 201.515625 545.109375 C 202.9375 543.921875 212.6875 536.078125 222.890625 527.75 L 241.1875 512.765625 L 241.1875 456.40625 L 219.8125 446.1875 L 198.421875 435.96875 Z M 198.421875 491.609375 "/>
<path style=" stroke:none;fill-rule:nonzero;fill:rgb(1.568627%,47.058824%,34.117647%);fill-opacity:1;" d="M 694.9375 484 C 671.90625 493.265625 660.015625 503.734375 649.5625 523.9375 C 635.3125 551.53125 640.78125 586.25 663.109375 610.265625 C 677.359375 625.484375 691.859375 631.1875 716.328125 631.1875 C 740.5625 630.953125 751.953125 625.953125 768.828125 608.59375 C 795.90625 580.53125 794.71875 529.890625 766.453125 503.25 C 749.34375 487.328125 741.984375 484.234375 718.703125 483.28125 C 707.53125 483.046875 696.84375 483.28125 694.9375 484 Z M 733.1875 514.4375 C 750.0625 521.5625 757.421875 536.3125 756.234375 559.84375 C 755.046875 583.390625 747.6875 595.046875 730.34375 600.03125 C 707.765625 606.9375 690.671875 600.515625 679.5 581.484375 C 666.4375 559.140625 674.984375 525.140625 695.890625 515.625 C 707.53125 510.390625 722.265625 509.921875 733.1875 514.4375 Z M 733.1875 514.4375 "/>
<path style=" stroke:none;fill-rule:nonzero;fill:rgb(1.568627%,47.058824%,34.117647%);fill-opacity:1;" d="M 1000.6875 485.90625 C 986.671875 491.125 972.890625 504.203125 965.765625 519.421875 C 955.3125 542.015625 955.3125 576.015625 965.765625 596.703125 C 980.265625 625 1023.265625 639.75 1057 627.859375 C 1064.828125 625.234375 1073.625 620.484375 1076.953125 617.625 L 1082.65625 612.15625 L 1072.671875 603.609375 C 1062.453125 594.796875 1062.453125 594.796875 1053.90625 598.609375 C 1042.5 603.359375 1021.125 603.359375 1011.375 598.125 C 1007.34375 596 1000.921875 589.8125 997.125 584.34375 C 991.65625 575.78125 990.71875 571.96875 990.71875 556.515625 C 990.71875 530.125 1000.453125 515.859375 1021.828125 511.109375 C 1032.765625 508.484375 1047.734375 511.8125 1049.859375 517.28125 C 1052.25 523.703125 1051.53125 536.078125 1048.203125 540.59375 C 1044.640625 545.34375 1030.859375 548.90625 1015.1875 549.15625 L 1003.78125 549.15625 L 1003.78125 575.3125 L 1021.125 575.3125 C 1061.75 575.3125 1083.84375 557.953125 1084.3125 525.609375 C 1084.546875 509.921875 1076.71875 495.40625 1064.59375 489.234375 C 1052 482.5625 1014.703125 480.671875 1000.6875 485.90625 Z M 1000.6875 485.90625 "/>
<path style=" stroke:none;fill-rule:nonzero;fill:rgb(1.568627%,47.058824%,34.117647%);fill-opacity:1;" d="M 567.84375 489.46875 C 556.203125 494.703125 549.3125 502.3125 543.84375 514.671875 C 540.28125 522.515625 539.34375 533.6875 538.625 576.96875 L 537.671875 630 L 568.5625 630 L 569.5 577.6875 C 570.453125 512.296875 568.796875 515.140625 605.859375 513.953125 L 630.796875 513 L 630.796875 484.953125 L 604.1875 484.953125 C 583.28125 484.953125 575.203125 485.90625 567.84375 489.46875 Z M 567.84375 489.46875 "/>
<path style=" stroke:none;fill-rule:nonzero;fill:rgb(1.568627%,47.058824%,34.117647%);fill-opacity:1;" d="M 811.828125 538.921875 C 812.53125 588.625 813.015625 593.859375 817.765625 602.65625 C 827.984375 621.90625 839.390625 627.140625 875.5 629.28125 C 904.234375 630.953125 902.8125 629.765625 896.875 645.453125 C 891.890625 658.765625 875.015625 665.65625 846.984375 665.65625 L 825.609375 665.65625 L 825.609375 696.578125 L 840.09375 696.578125 C 860.53125 696.578125 887.140625 692.0625 897.34375 686.828125 C 909.46875 680.640625 922.296875 666.375 927.046875 653.78125 C 930.375 644.734375 931.078125 631.421875 932.03125 563.890625 L 932.75 484.953125 L 901.625 484.953125 L 901.625 599.078125 L 880 599.078125 C 843.421875 599.078125 842.234375 596.9375 842.234375 531.3125 L 842.234375 484.953125 L 810.875 484.953125 Z M 811.828125 538.921875 "/>
<path style=" stroke:none;fill-rule:nonzero;fill:rgb(1.568627%,47.058824%,34.117647%);fill-opacity:1;" d="M 1255.59375 498.984375 L 1255.59375 513.484375 L 1284.109375 513.484375 C 1332.8125 513.484375 1336.375 517.28125 1336.375 568.40625 L 1336.375 599.5625 L 1308.8125 598.609375 C 1284.828125 597.890625 1281.015625 597.1875 1277.9375 593.375 C 1273.421875 586.953125 1273.65625 579.34375 1278.875 572.921875 C 1286.015625 564.125 1307.859375 563.65625 1327.578125 571.734375 C 1331.140625 573.171875 1331.625 571.734375 1331.625 557.953125 L 1331.625 542.484375 L 1316.65625 539.875 C 1278.640625 533.21875 1247.28125 549.15625 1244.4375 576.25 C 1242.53125 592.421875 1245.625 603.609375 1254.171875 612.40625 C 1267.953125 626.421875 1275.5625 628.328125 1324.015625 629.515625 L 1367.25 630.46875 L 1367.25 581.015625 C 1367.25 553.671875 1366.0625 527.515625 1364.875 522.75 C 1361.078125 509.4375 1352.765625 498.734375 1341.125 492.078125 C 1331.140625 486.609375 1327.8125 486.140625 1293.140625 485.421875 L 1255.59375 484.46875 Z M 1255.59375 498.984375 "/>
<path style=" stroke:none;fill-rule:nonzero;fill:rgb(1.568627%,47.058824%,34.117647%);fill-opacity:1;" d="M 1395.765625 557.234375 L 1395.765625 630 L 1426.640625 630 L 1426.640625 513.484375 L 1445.890625 513.484375 C 1469.171875 513.484375 1479.859375 517.765625 1483.421875 528.21875 C 1485.09375 532.5 1486.046875 555.328125 1486.046875 582.671875 L 1486.046875 630 L 1517.390625 630 L 1516.453125 573.40625 C 1515.734375 513.484375 1515.734375 513.953125 1503.625 500.171875 C 1492.6875 488.03125 1485.328125 486.375 1439.234375 485.421875 L 1395.765625 484.46875 Z M 1395.765625 557.234375 "/>
<path style=" stroke:none;fill-rule:nonzero;fill:rgb(1.568627%,47.058824%,34.117647%);fill-opacity:1;" d="M 237.15625 526.078125 C 234.296875 531.078125 196.765625 561.28125 182.75 569.84375 C 138.5625 596.9375 113.859375 606.21875 86.53125 606.21875 C 65.859375 606.21875 58.734375 604.3125 51.140625 596.234375 C 42.109375 586.71875 33.3125 565.5625 33.3125 553.421875 C 33.3125 547.015625 33.078125 542.015625 32.609375 542.015625 C 32.125 542.015625 28.5625 549.15625 24.765625 557.953125 C 19.0625 570.3125 17.40625 576.96875 17.640625 588.859375 C 17.875 624.28125 34.515625 650.6875 69.90625 671.375 C 98.65625 688.015625 147.828125 696.578125 187.96875 691.8125 C 211.96875 688.96875 242.140625 682.078125 254.25 676.59375 C 258.296875 674.703125 267.328125 670.890625 274.453125 667.796875 C 298.921875 657.578125 342.15625 628.5625 358.3125 611.6875 L 364.96875 604.546875 L 346.4375 596 C 311.265625 579.578125 281.8125 560.09375 250.21875 532.5 C 241.421875 524.890625 238.8125 523.46875 237.15625 526.078125 Z M 261.859375 560.328125 C 266.140625 564.375 275.875 571.96875 283.234375 576.96875 C 290.84375 581.71875 297.5 586.71875 298.203125 587.671875 C 299.390625 589.09375 307.46875 592.90625 331.234375 602.890625 L 339.3125 606.21875 L 332.421875 613.59375 C 328.609375 617.625 317.453125 625.71875 307.703125 631.890625 C 297.96875 637.84375 288.234375 644.03125 286.328125 645.453125 C 271.59375 656.625 222.421875 671.609375 185.59375 676.125 C 147.109375 680.640625 105.0625 673.515625 75.609375 657.109375 C 56.84375 646.640625 34.515625 619.296875 34.515625 606.9375 C 34.515625 603.359375 34.984375 603.359375 38.78125 606.6875 C 52.09375 618.578125 61.109375 621.4375 86.765625 621.4375 C 105.78125 621.4375 113.375 620.484375 118.84375 617.390625 C 122.875 615.25 127.390625 613.34375 129.0625 613.34375 C 130.71875 613.34375 141.890625 608.828125 154 603.125 C 177.28125 592.1875 215.53125 566.984375 232.15625 551.765625 L 242.375 542.25 L 248.3125 547.484375 C 251.640625 550.34375 257.578125 556.046875 261.859375 560.328125 Z M 261.859375 560.328125 "/>
</g>
</svg>
