<?xml version="1.0" standalone="no"?>
<!DOCTYPE svg PUBLIC "-//W3C//DTD SVG 20010904//EN"
 "http://www.w3.org/TR/2001/REC-SVG-20010904/DTD/svg10.dtd">
<svg version="1.0" xmlns="http://www.w3.org/2000/svg"
 width="150.000000pt" height="220.000000pt" viewBox="0 0 1000.000000 250.000000"
 <!-- preserveAspectRatio="xMidYMid meet"> -->

<g transform="translate(0.000000,480.000000) scale(0.180000,-0.180000)"
fill="#047857" stroke="none">
<path d="M552 2650 l-143 -69 3 -72 3 -71 55 -23 55 -23 1 -64 c1 -35 2 -174
3 -310 1 -215 3 -248 16 -248 9 0 47 16 85 35 l70 35 0 440 c0 242 -1 440 -2
440 -2 0 -67 -32 -146 -70z"/>
<path d="M1745 2444 c-58 -20 -106 -64 -140 -125 l-30 -54 -3 -347 -3 -348 65
0 65 0 3 323 c3 292 5 326 22 360 31 63 96 92 176 77 80 -15 127 -95 110 -187
-16 -91 -66 -123 -193 -123 l-85 0 1 -62 2 -63 74 -3 c96 -4 166 11 232 51 44
26 60 43 83 91 25 50 30 71 30 140 1 69 -3 89 -27 138 -33 66 -82 111 -146
133 -56 19 -182 18 -236 -1z"/>
<path d="M4640 2010 l0 -440 65 0 65 0 0 130 0 130 58 0 c39 0 67 -6 89 -20
52 -31 66 -63 71 -156 l5 -84 65 0 65 0 -5 100 c-6 126 -39 199 -103 234 -22
11 -42 22 -44 23 -2 2 3 11 11 20 8 10 32 50 53 88 21 39 47 85 57 103 10 18
18 35 18 38 0 3 -30 4 -67 2 -66 -3 -67 -3 -87 -43 -12 -22 -38 -73 -60 -112
l-38 -73 -44 0 -44 0 0 250 0 250 -65 0 -65 0 0 -440z"/>
<path d="M334 2400 c-32 -17 -95 -46 -139 -65 l-80 -33 -3 -139 -2 -138 117
-69 c65 -38 129 -78 142 -88 13 -10 28 -18 32 -18 5 0 9 131 9 290 0 160 -4
290 -9 290 -4 0 -35 -14 -67 -30z"/>
<path d="M810 2152 c0 -186 3 -232 13 -225 6 5 47 38 90 73 l77 63 0 118 0
119 -90 43 -90 43 0 -234z"/>
<path d="M2900 2184 c-97 -39 -147 -83 -191 -168 -60 -116 -37 -262 57 -363
60 -64 121 -88 224 -88 102 1 150 22 221 95 114 118 109 331 -10 443 -72 67
-103 80 -201 84 -47 1 -92 0 -100 -3z m161 -128 c71 -30 102 -92 97 -191 -5
-99 -36 -148 -109 -169 -95 -29 -167 -2 -214 78 -55 94 -19 237 69 277 49 22
111 24 157 5z"/>
<path d="M4187 2176 c-59 -22 -117 -77 -147 -141 -44 -95 -44 -238 0 -325 61
-119 242 -181 384 -131 33 11 70 31 84 43 l24 23 -42 36 c-43 37 -43 37 -79
21 -48 -20 -138 -20 -179 2 -17 9 -44 35 -60 58 -23 36 -27 52 -27 117 0 111
41 171 131 191 46 11 109 -3 118 -26 10 -27 7 -79 -7 -98 -15 -20 -73 -35
-139 -36 l-48 0 0 -55 0 -55 73 0 c171 0 264 73 266 209 1 66 -32 127 -83 153
-53 28 -210 36 -269 14z"/>
<path d="M2365 2161 c-49 -22 -78 -54 -101 -106 -15 -33 -19 -80 -22 -262 l-4
-223 65 0 65 0 4 220 c4 275 -3 263 153 268 l105 4 0 59 0 59 -112 0 c-88 0
-122 -4 -153 -19z"/>
<path d="M3392 1953 c3 -209 5 -231 25 -268 43 -81 91 -103 243 -112 121 -7
115 -2 90 -68 -21 -56 -92 -85 -210 -85 l-90 0 0 -65 0 -65 61 0 c86 0 198 19
241 41 51 26 105 86 125 139 14 38 17 94 21 378 l3 332 -65 0 -66 0 0 -240 0
-240 -91 0 c-154 0 -159 9 -159 285 l0 195 -66 0 -66 0 4 -227z"/>
<path d="M5260 2121 l0 -61 120 0 c205 0 220 -16 220 -231 l0 -131 -116 4
c-101 3 -117 6 -130 22 -19 27 -18 59 4 86 30 37 122 39 205 5 15 -6 17 0 17
58 l0 65 -63 11 c-160 28 -292 -39 -304 -153 -8 -68 5 -115 41 -152 58 -59 90
-67 294 -72 l182 -4 0 208 c0 115 -5 225 -10 245 -16 56 -51 101 -100 129 -42
23 -56 25 -202 28 l-158 4 0 -61z"/>
<path d="M5850 1876 l0 -306 65 0 65 0 0 245 0 245 81 0 c98 0 143 -18 158
-62 7 -18 11 -114 11 -229 l0 -199 66 0 66 0 -4 238 c-3 252 -3 250 -54 308
-46 51 -77 58 -271 62 l-183 4 0 -306z"/>
<path d="M973 2007 c-12 -21 -170 -148 -229 -184 -186 -114 -290 -153 -405
-153 -87 0 -117 8 -149 42 -38 40 -75 129 -75 180 0 27 -1 48 -3 48 -2 0 -17
-30 -33 -67 -24 -52 -31 -80 -30 -130 1 -149 71 -260 220 -347 121 -70 328
-106 497 -86 101 12 228 41 279 64 17 8 55 24 85 37 103 43 285 165 353 236
l28 30 -78 36 c-148 69 -272 151 -405 267 -37 32 -48 38 -55 27z m104 -144
c18 -17 59 -49 90 -70 32 -20 60 -41 63 -45 5 -6 39 -22 139 -64 l34 -14 -29
-31 c-16 -17 -63 -51 -104 -77 -41 -25 -82 -51 -90 -57 -62 -47 -269 -110
-424 -129 -162 -19 -339 11 -463 80 -79 44 -173 159 -173 211 0 15 2 15 18 1
56 -50 94 -62 202 -62 80 0 112 4 135 17 17 9 36 17 43 17 7 0 54 19 105 43
98 46 259 152 329 216 l43 40 25 -22 c14 -12 39 -36 57 -54z"/>
</g>
</svg>
